<!DOCTYPE svg PUBLIC "-//W3C//DTD SVG 20010904//EN" "http://www.w3.org/TR/2001/REC-SVG-20010904/DTD/svg10.dtd">
<svg version="1.0" xmlns="http://www.w3.org/2000/svg" width="777px" height="75px" viewBox="0 0 7770 750" preserveAspectRatio="xMidYMid meet">
<g id="layer101" fill="#ffffff" stroke="none">
 <path d="M1470 485 l0 -265 70 0 c55 0 70 3 70 15 0 12 6 11 33 -5 22 -14 50 -20 89 -20 49 0 62 4 92 30 49 44 66 86 66 170 0 84 -17 126 -66 170 -30 26 -43 30 -92 30 -39 0 -67 -6 -89 -20 l-33 -20 0 90 0 90 -70 0 -70 0 0 -265z m267 -2 c23 -35 23 -111 0 -146 -13 -20 -26 -27 -50 -27 -38 0 -50 7 -66 37 -23 44 -10 134 23 155 6 4 26 8 43 8 24 0 37 -7 50 -27z"/>
 <path d="M4210 711 c0 -37 2 -39 38 -46 42 -8 62 -21 62 -42 0 -8 -38 -102 -84 -209 l-85 -194 69 0 68 0 48 121 48 121 40 -121 40 -121 68 0 c66 0 67 1 59 22 -100 263 -167 429 -182 454 -24 40 -57 54 -129 54 l-60 0 0 -39z"/>
 <path d="M7418 743 c-27 -4 -28 -7 -28 -59 0 -58 7 -64 50 -39 14 8 51 14 83 15 48 0 62 -4 82 -25 14 -13 25 -35 25 -49 l0 -26 -32 20 c-51 31 -137 28 -178 -6 -49 -41 -70 -93 -70 -170 0 -77 18 -121 66 -164 30 -26 43 -30 92 -30 39 0 67 6 90 20 26 16 32 17 32 5 0 -12 15 -15 70 -15 l70 0 0 178 c-1 246 -12 285 -100 330 -37 18 -59 22 -135 21 -49 -1 -102 -4 -117 -6z m192 -263 c15 -15 20 -33 20 -75 0 -67 -22 -95 -75 -95 -27 0 -39 6 -52 27 -24 36 -23 115 2 143 24 26 78 27 105 0z"/>
 <path d="M2012 728 c-7 -7 -12 -17 -12 -24 0 -6 -11 -15 -24 -18 -14 -3 -28 -16 -32 -29 -4 -12 -15 -28 -25 -35 -21 -15 -25 -62 -7 -80 7 -7 29 -12 50 -12 l38 0 0 -155 0 -155 -31 0 c-17 0 -39 -5 -50 -10 -26 -14 -26 -66 1 -82 11 -7 20 -20 20 -28 0 -21 20 -40 41 -40 11 0 19 -9 21 -22 5 -35 54 -37 70 -4 6 14 19 26 29 26 19 0 45 37 35 47 -3 4 4 11 17 17 23 12 33 52 19 74 -5 8 -28 16 -51 19 l-41 6 0 153 0 154 38 0 c45 0 62 14 62 52 0 21 -7 32 -25 40 -13 6 -22 15 -19 20 7 11 -24 48 -41 48 -6 0 -17 11 -23 25 -12 27 -40 33 -60 13z"/>
 <path d="M5932 718 c-7 -7 -12 -17 -12 -24 0 -6 -11 -15 -24 -18 -14 -3 -28 -16 -32 -29 -4 -12 -15 -28 -25 -35 -21 -15 -25 -62 -7 -80 7 -7 29 -12 50 -12 l38 0 0 -155 0 -155 -31 0 c-17 0 -39 -5 -50 -10 -26 -14 -26 -66 1 -82 11 -7 20 -20 20 -28 0 -21 20 -40 41 -40 11 0 19 -9 21 -22 5 -35 54 -37 70 -4 6 14 19 26 29 26 19 0 45 37 35 47 -3 4 4 11 17 17 23 12 33 52 19 74 -5 8 -28 16 -51 19 l-41 6 0 153 0 154 38 0 c45 0 62 14 62 52 0 21 -7 32 -25 40 -13 6 -22 15 -19 20 7 11 -24 48 -41 48 -6 0 -17 11 -23 25 -12 27 -40 33 -60 13z"/>
 <path d="M48 594 l-48 -15 0 -54 c0 -30 3 -55 8 -55 4 0 31 9 60 20 65 25 164 27 186 4 40 -39 9 -70 -94 -94 -128 -30 -165 -70 -158 -176 3 -53 9 -69 33 -94 42 -43 83 -53 199 -47 135 6 136 7 136 73 0 30 -3 54 -6 54 -3 0 -27 -7 -53 -16 -68 -22 -159 -16 -178 13 -13 19 -12 24 5 41 10 10 52 27 91 35 142 33 175 63 176 162 0 120 -59 165 -216 164 -52 0 -115 -7 -141 -15z"/>
 <path d="M2298 596 c-72 -32 -108 -93 -108 -185 0 -71 12 -106 48 -145 39 -41 82 -56 162 -56 115 0 177 44 199 141 22 95 30 89 -134 89 -80 0 -145 2 -145 5 0 16 31 63 45 69 34 13 121 5 164 -14 24 -11 47 -20 52 -20 5 0 9 22 9 48 l0 48 -53 17 c-62 20 -198 22 -239 3z m172 -244 c0 -4 -7 -18 -16 -30 -19 -28 -83 -31 -106 -4 -35 40 -33 42 46 42 42 0 76 -3 76 -8z"/>
 <path d="M3295 596 c-37 -17 -80 -62 -94 -99 -6 -16 -11 -55 -11 -87 0 -70 12 -105 48 -144 39 -41 82 -56 164 -56 141 0 211 66 211 200 0 89 -32 148 -96 179 -51 25 -173 29 -222 7z m162 -113 c11 -16 18 -46 18 -73 0 -67 -25 -100 -75 -100 -50 0 -75 33 -75 100 0 67 25 100 75 100 32 0 43 -5 57 -27z"/>
 <path d="M3739 583 c-46 -39 -69 -96 -69 -173 0 -77 23 -134 69 -173 27 -22 42 -27 89 -27 39 0 67 6 90 20 l32 20 0 -90 0 -90 70 0 70 0 0 265 0 265 -70 0 c-55 0 -70 -3 -70 -15 0 -12 -6 -11 -32 5 -23 14 -51 20 -90 20 -47 0 -62 -5 -89 -27z m191 -93 c16 -16 20 -33 20 -80 0 -72 -21 -100 -75 -100 -45 0 -69 34 -69 100 0 66 24 100 69 100 22 0 43 -8 55 -20z"/>
 <path d="M4823 590 c-27 -16 -33 -17 -33 -5 0 12 -15 15 -70 15 l-70 0 0 -265 0 -265 70 0 70 0 0 90 0 90 33 -20 c22 -14 50 -20 89 -20 49 0 62 4 92 30 49 44 66 86 66 170 0 84 -17 126 -66 170 -30 26 -43 30 -92 30 -39 0 -67 -6 -89 -20z m94 -107 c11 -16 18 -46 18 -73 0 -63 -25 -100 -68 -100 -38 0 -50 7 -66 37 -23 44 -10 134 23 155 6 4 26 8 43 8 24 0 37 -7 50 -27z"/>
 <path d="M5205 588 c-46 -36 -55 -73 -55 -228 l0 -140 65 0 65 0 0 123 c0 95 4 128 16 145 22 31 67 29 93 -4 19 -24 21 -40 21 -145 l0 -119 65 0 65 0 0 190 0 190 -65 0 c-59 0 -65 -2 -65 -21 0 -20 -1 -20 -31 5 -41 35 -132 37 -174 4z"/>
 <path d="M6179 583 c-46 -39 -69 -96 -69 -173 0 -77 23 -134 69 -173 27 -22 42 -27 89 -27 39 0 67 6 90 20 l32 20 0 -90 0 -90 70 0 70 0 0 265 0 265 -70 0 c-55 0 -70 -3 -70 -15 0 -12 -6 -11 -32 5 -23 14 -51 20 -90 20 -47 0 -62 -5 -89 -27z m191 -93 c16 -16 20 -33 20 -80 0 -72 -21 -100 -75 -100 -45 0 -69 34 -69 100 0 66 24 100 69 100 22 0 43 -8 55 -20z"/>
 <path d="M500 410 l0 -190 70 0 70 0 0 190 0 190 -70 0 -70 0 0 -190z"/>
 <path d="M740 410 l0 -190 70 0 c57 0 70 3 70 16 0 13 5 12 29 -5 46 -33 121 -29 163 8 l33 29 33 -29 c28 -25 40 -29 91 -29 49 0 65 4 90 26 42 35 51 77 51 232 l0 132 -65 0 -65 0 0 -119 c0 -148 -8 -173 -52 -169 -52 5 -68 48 -68 181 l0 107 -65 0 -65 0 0 -126 c0 -69 -5 -134 -10 -145 -15 -27 -64 -25 -84 3 -12 17 -16 50 -16 145 l0 123 -70 0 -70 0 0 -190z"/>
 <path d="M2690 345 l0 -255 148 1 c163 0 204 9 236 52 30 41 29 126 -2 160 l-23 24 30 30 c52 53 54 147 3 196 -43 41 -73 47 -238 47 l-154 0 0 -255z m273 134 c38 -46 6 -86 -75 -95 l-58 -7 0 68 0 68 58 -7 c40 -4 62 -12 75 -27z m-15 -216 c29 -40 3 -71 -65 -80 l-53 -6 0 58 0 58 53 -6 c32 -4 57 -13 65 -24z"/>
 <path d="M5650 410 l0 -190 70 0 70 0 0 190 0 190 -70 0 -70 0 0 -190z"/>
 <path d="M6630 410 l0 -190 70 0 70 0 0 190 0 190 -70 0 -70 0 0 -190z"/>
 <path d="M6870 410 l0 -190 70 0 c57 0 70 3 70 16 0 13 5 12 34 -5 50 -31 135 -29 175 5 42 35 51 77 51 232 l0 132 -64 0 -64 0 -4 -129 c-2 -88 -8 -134 -17 -145 -21 -25 -66 -20 -90 10 -19 24 -21 40 -21 145 l0 119 -70 0 -70 0 0 -190z"/>
 <path d="M500 120 l0 -50 70 0 70 0 0 50 0 50 -70 0 -70 0 0 -50z"/>
 <path d="M5650 120 l0 -50 70 0 70 0 0 50 0 50 -70 0 -70 0 0 -50z"/>
 <path d="M6630 120 l0 -50 70 0 70 0 0 50 0 50 -70 0 -70 0 0 -50z"/>
 </g>

</svg>